<?xml version="1.0" standalone="no"?><!DOCTYPE svg PUBLIC "-//W3C//DTD SVG 1.1//EN" "http://www.w3.org/Graphics/SVG/1.1/DTD/svg11.dtd"><svg t="1519795908544" class="icon" style="" viewBox="0 0 1024 1024" version="1.1" xmlns="http://www.w3.org/2000/svg" p-id="943" xmlns:xlink="http://www.w3.org/1999/xlink" width="64" height="64"><defs><style type="text/css"></style></defs><path d="M789.333333 354.133333c0-157.866667-130.133333-288-288-288S213.333333 196.266667 213.333333 354.133333c0 117.333333 70.4 217.6 170.666667 262.4-132.266667 40.533333-238.933333 153.6-275.2 296.533334-2.133333 12.8 4.266667 23.466667 17.066667 25.6h4.266666c10.666667 0 19.2-6.4 21.333334-17.066667C192 757.333333 334.933333 640 494.933333 640H501.333333c157.866667 2.133333 288-128 288-285.866667z m-533.333333 0c0-134.4 110.933333-245.333333 245.333333-245.333333S746.666667 219.733333 746.666667 354.133333s-110.933333 245.333333-245.333334 245.333334S256 488.533333 256 354.133333zM853.333333 661.333333H618.666667c-36.266667 0-64 27.733333-64 64v170.666667c0 36.266667 27.733333 64 64 64h234.666666c36.266667 0 64-27.733333 64-64v-170.666667c0-34.133333-29.866667-64-64-64z m21.333334 234.666667c0 12.8-8.533333 21.333333-21.333334 21.333333H618.666667c-12.8 0-21.333333-8.533333-21.333334-21.333333v-170.666667c0-12.8 8.533333-21.333333 21.333334-21.333333h234.666666c12.8 0 21.333333 8.533333 21.333334 21.333333v170.666667z" p-id="944" fill="#ffffff"></path><path d="M663.466667 787.2H704c12.8 0 21.333333-8.533333 21.333333-21.333333s-8.533333-21.333333-21.333333-21.333334h-40.533333c-12.8 0-21.333333 8.533333-21.333334 21.333334s8.533333 21.333333 21.333334 21.333333zM810.666667 832h-147.2c-12.8 0-21.333333 8.533333-21.333334 21.333333s8.533333 21.333333 21.333334 21.333334H810.666667c12.8 0 21.333333-8.533333 21.333333-21.333334s-10.666667-21.333333-21.333333-21.333333z" p-id="945" fill="#ffffff"></path></svg>